<mxfile host="app.diagrams.net" agent="Mozilla/5.0 (Windows NT 10.0; Win64; x64) AppleWebKit/537.36 (KHTML, like Gecko) Chrome/134.0.0.0 Safari/537.36 Edg/134.0.0.0" version="26.2.3">
  <diagram name="第 1 页" id="3titgzVjiqhGqrw3cSma">
    <mxGraphModel dx="547" dy="820" grid="1" gridSize="10" guides="1" tooltips="1" connect="1" arrows="1" fold="1" page="1" pageScale="1" pageWidth="827" pageHeight="1169" math="0" shadow="0">
      <root>
        <mxCell id="0" />
        <mxCell id="1" parent="0" />
        <mxCell id="JuDqGbbSawKdHC7prrvu-1" value="" style="rounded=0;whiteSpace=wrap;html=1;" vertex="1" parent="1">
          <mxGeometry x="80" y="200" width="40" height="40" as="geometry" />
        </mxCell>
        <mxCell id="JuDqGbbSawKdHC7prrvu-2" value="" style="rounded=0;whiteSpace=wrap;html=1;" vertex="1" parent="1">
          <mxGeometry x="120" y="200" width="40" height="40" as="geometry" />
        </mxCell>
        <mxCell id="JuDqGbbSawKdHC7prrvu-5" value="" style="rounded=0;whiteSpace=wrap;html=1;" vertex="1" parent="1">
          <mxGeometry x="160" y="200" width="40" height="40" as="geometry" />
        </mxCell>
        <mxCell id="JuDqGbbSawKdHC7prrvu-6" value="" style="rounded=0;whiteSpace=wrap;html=1;" vertex="1" parent="1">
          <mxGeometry x="200" y="200" width="40" height="40" as="geometry" />
        </mxCell>
        <mxCell id="JuDqGbbSawKdHC7prrvu-7" value="" style="rounded=0;whiteSpace=wrap;html=1;" vertex="1" parent="1">
          <mxGeometry x="240" y="200" width="40" height="40" as="geometry" />
        </mxCell>
        <mxCell id="JuDqGbbSawKdHC7prrvu-8" value="" style="rounded=0;whiteSpace=wrap;html=1;" vertex="1" parent="1">
          <mxGeometry x="280" y="200" width="40" height="40" as="geometry" />
        </mxCell>
        <mxCell id="JuDqGbbSawKdHC7prrvu-9" value="" style="rounded=0;whiteSpace=wrap;html=1;" vertex="1" parent="1">
          <mxGeometry x="320" y="200" width="40" height="40" as="geometry" />
        </mxCell>
        <mxCell id="JuDqGbbSawKdHC7prrvu-10" value="" style="rounded=0;whiteSpace=wrap;html=1;" vertex="1" parent="1">
          <mxGeometry x="360" y="200" width="40" height="40" as="geometry" />
        </mxCell>
        <mxCell id="JuDqGbbSawKdHC7prrvu-12" value="&lt;font style=&quot;font-size: 20px;&quot;&gt;A&lt;/font&gt;" style="rounded=0;whiteSpace=wrap;html=1;" vertex="1" parent="1">
          <mxGeometry x="90" y="440" width="40" height="40" as="geometry" />
        </mxCell>
        <mxCell id="JuDqGbbSawKdHC7prrvu-20" value="&lt;font style=&quot;font-size: 20px;&quot;&gt;最长子串&lt;/font&gt;" style="text;html=1;align=center;verticalAlign=middle;whiteSpace=wrap;rounded=0;" vertex="1" parent="1">
          <mxGeometry x="50" y="380" width="90" height="30" as="geometry" />
        </mxCell>
        <mxCell id="JuDqGbbSawKdHC7prrvu-21" value="&lt;font style=&quot;font-size: 20px;&quot;&gt;B&lt;/font&gt;" style="rounded=0;whiteSpace=wrap;html=1;" vertex="1" parent="1">
          <mxGeometry x="130" y="440" width="40" height="40" as="geometry" />
        </mxCell>
        <mxCell id="JuDqGbbSawKdHC7prrvu-22" value="&lt;font style=&quot;font-size: 20px;&quot;&gt;C&lt;/font&gt;" style="rounded=0;whiteSpace=wrap;html=1;" vertex="1" parent="1">
          <mxGeometry x="170" y="440" width="40" height="40" as="geometry" />
        </mxCell>
        <mxCell id="JuDqGbbSawKdHC7prrvu-23" value="&lt;font style=&quot;font-size: 20px;&quot;&gt;D&lt;/font&gt;" style="rounded=0;whiteSpace=wrap;html=1;" vertex="1" parent="1">
          <mxGeometry x="210" y="440" width="40" height="40" as="geometry" />
        </mxCell>
        <mxCell id="JuDqGbbSawKdHC7prrvu-24" value="&lt;font style=&quot;font-size: 20px;&quot;&gt;E&lt;/font&gt;" style="rounded=0;whiteSpace=wrap;html=1;" vertex="1" parent="1">
          <mxGeometry x="250" y="440" width="40" height="40" as="geometry" />
        </mxCell>
        <mxCell id="JuDqGbbSawKdHC7prrvu-25" value="&lt;font style=&quot;font-size: 20px;&quot;&gt;F&lt;/font&gt;" style="rounded=0;whiteSpace=wrap;html=1;" vertex="1" parent="1">
          <mxGeometry x="290" y="440" width="40" height="40" as="geometry" />
        </mxCell>
        <mxCell id="JuDqGbbSawKdHC7prrvu-26" value="&lt;font style=&quot;font-size: 20px;&quot;&gt;D&lt;/font&gt;" style="rounded=0;whiteSpace=wrap;html=1;" vertex="1" parent="1">
          <mxGeometry x="330" y="440" width="40" height="40" as="geometry" />
        </mxCell>
        <mxCell id="JuDqGbbSawKdHC7prrvu-27" value="&lt;font style=&quot;font-size: 20px;&quot;&gt;A&lt;/font&gt;" style="rounded=0;whiteSpace=wrap;html=1;" vertex="1" parent="1">
          <mxGeometry x="370" y="440" width="40" height="40" as="geometry" />
        </mxCell>
        <mxCell id="JuDqGbbSawKdHC7prrvu-28" value="&lt;font style=&quot;font-size: 20px;&quot;&gt;G&lt;/font&gt;" style="rounded=0;whiteSpace=wrap;html=1;" vertex="1" parent="1">
          <mxGeometry x="410" y="440" width="40" height="40" as="geometry" />
        </mxCell>
        <mxCell id="JuDqGbbSawKdHC7prrvu-29" value="&lt;font style=&quot;font-size: 20px;&quot;&gt;E&lt;/font&gt;" style="rounded=0;whiteSpace=wrap;html=1;" vertex="1" parent="1">
          <mxGeometry x="450" y="440" width="40" height="40" as="geometry" />
        </mxCell>
        <mxCell id="JuDqGbbSawKdHC7prrvu-30" value="&lt;font style=&quot;font-size: 20px;&quot;&gt;A&lt;/font&gt;" style="rounded=0;whiteSpace=wrap;html=1;" vertex="1" parent="1">
          <mxGeometry x="490" y="440" width="40" height="40" as="geometry" />
        </mxCell>
        <mxCell id="JuDqGbbSawKdHC7prrvu-31" value="&lt;font style=&quot;font-size: 20px;&quot;&gt;A&lt;/font&gt;" style="rounded=0;whiteSpace=wrap;html=1;" vertex="1" parent="1">
          <mxGeometry x="530" y="440" width="40" height="40" as="geometry" />
        </mxCell>
        <mxCell id="JuDqGbbSawKdHC7prrvu-32" value="&lt;font style=&quot;font-size: 20px;&quot;&gt;R&lt;/font&gt;" style="rounded=0;whiteSpace=wrap;html=1;" vertex="1" parent="1">
          <mxGeometry x="570" y="440" width="40" height="40" as="geometry" />
        </mxCell>
        <mxCell id="JuDqGbbSawKdHC7prrvu-33" value="&lt;font style=&quot;font-size: 20px;&quot;&gt;V&lt;/font&gt;" style="rounded=0;whiteSpace=wrap;html=1;" vertex="1" parent="1">
          <mxGeometry x="610" y="440" width="40" height="40" as="geometry" />
        </mxCell>
        <mxCell id="JuDqGbbSawKdHC7prrvu-34" value="&lt;font style=&quot;font-size: 20px;&quot;&gt;O&lt;/font&gt;" style="rounded=0;whiteSpace=wrap;html=1;" vertex="1" parent="1">
          <mxGeometry x="650" y="440" width="40" height="40" as="geometry" />
        </mxCell>
        <mxCell id="JuDqGbbSawKdHC7prrvu-35" value="&lt;font style=&quot;font-size: 20px;&quot;&gt;A&lt;/font&gt;" style="rounded=0;whiteSpace=wrap;html=1;" vertex="1" parent="1">
          <mxGeometry x="690" y="440" width="40" height="40" as="geometry" />
        </mxCell>
        <mxCell id="JuDqGbbSawKdHC7prrvu-11" value="" style="rounded=0;whiteSpace=wrap;html=1;fillColor=none;strokeWidth=3;" vertex="1" parent="1">
          <mxGeometry x="90" y="430" width="40" height="60" as="geometry" />
        </mxCell>
        <mxCell id="JuDqGbbSawKdHC7prrvu-53" value="&lt;font style=&quot;font-size: 20px;&quot;&gt;A&lt;/font&gt;" style="rounded=0;whiteSpace=wrap;html=1;" vertex="1" parent="1">
          <mxGeometry x="90" y="520" width="40" height="40" as="geometry" />
        </mxCell>
        <mxCell id="JuDqGbbSawKdHC7prrvu-54" value="&lt;font style=&quot;font-size: 20px;&quot;&gt;B&lt;/font&gt;" style="rounded=0;whiteSpace=wrap;html=1;" vertex="1" parent="1">
          <mxGeometry x="130" y="520" width="40" height="40" as="geometry" />
        </mxCell>
        <mxCell id="JuDqGbbSawKdHC7prrvu-55" value="&lt;font style=&quot;font-size: 20px;&quot;&gt;C&lt;/font&gt;" style="rounded=0;whiteSpace=wrap;html=1;" vertex="1" parent="1">
          <mxGeometry x="170" y="520" width="40" height="40" as="geometry" />
        </mxCell>
        <mxCell id="JuDqGbbSawKdHC7prrvu-56" value="&lt;font style=&quot;font-size: 20px;&quot;&gt;D&lt;/font&gt;" style="rounded=0;whiteSpace=wrap;html=1;" vertex="1" parent="1">
          <mxGeometry x="210" y="520" width="40" height="40" as="geometry" />
        </mxCell>
        <mxCell id="JuDqGbbSawKdHC7prrvu-57" value="&lt;font style=&quot;font-size: 20px;&quot;&gt;E&lt;/font&gt;" style="rounded=0;whiteSpace=wrap;html=1;" vertex="1" parent="1">
          <mxGeometry x="250" y="520" width="40" height="40" as="geometry" />
        </mxCell>
        <mxCell id="JuDqGbbSawKdHC7prrvu-58" value="&lt;font style=&quot;font-size: 20px;&quot;&gt;F&lt;/font&gt;" style="rounded=0;whiteSpace=wrap;html=1;" vertex="1" parent="1">
          <mxGeometry x="290" y="520" width="40" height="40" as="geometry" />
        </mxCell>
        <mxCell id="JuDqGbbSawKdHC7prrvu-59" value="&lt;font style=&quot;font-size: 20px;&quot;&gt;D&lt;/font&gt;" style="rounded=0;whiteSpace=wrap;html=1;" vertex="1" parent="1">
          <mxGeometry x="330" y="520" width="40" height="40" as="geometry" />
        </mxCell>
        <mxCell id="JuDqGbbSawKdHC7prrvu-60" value="&lt;font style=&quot;font-size: 20px;&quot;&gt;A&lt;/font&gt;" style="rounded=0;whiteSpace=wrap;html=1;" vertex="1" parent="1">
          <mxGeometry x="370" y="520" width="40" height="40" as="geometry" />
        </mxCell>
        <mxCell id="JuDqGbbSawKdHC7prrvu-61" value="&lt;font style=&quot;font-size: 20px;&quot;&gt;G&lt;/font&gt;" style="rounded=0;whiteSpace=wrap;html=1;" vertex="1" parent="1">
          <mxGeometry x="410" y="520" width="40" height="40" as="geometry" />
        </mxCell>
        <mxCell id="JuDqGbbSawKdHC7prrvu-62" value="&lt;font style=&quot;font-size: 20px;&quot;&gt;E&lt;/font&gt;" style="rounded=0;whiteSpace=wrap;html=1;" vertex="1" parent="1">
          <mxGeometry x="450" y="520" width="40" height="40" as="geometry" />
        </mxCell>
        <mxCell id="JuDqGbbSawKdHC7prrvu-63" value="&lt;font style=&quot;font-size: 20px;&quot;&gt;A&lt;/font&gt;" style="rounded=0;whiteSpace=wrap;html=1;" vertex="1" parent="1">
          <mxGeometry x="490" y="520" width="40" height="40" as="geometry" />
        </mxCell>
        <mxCell id="JuDqGbbSawKdHC7prrvu-64" value="&lt;font style=&quot;font-size: 20px;&quot;&gt;A&lt;/font&gt;" style="rounded=0;whiteSpace=wrap;html=1;" vertex="1" parent="1">
          <mxGeometry x="530" y="520" width="40" height="40" as="geometry" />
        </mxCell>
        <mxCell id="JuDqGbbSawKdHC7prrvu-65" value="&lt;font style=&quot;font-size: 20px;&quot;&gt;R&lt;/font&gt;" style="rounded=0;whiteSpace=wrap;html=1;" vertex="1" parent="1">
          <mxGeometry x="570" y="520" width="40" height="40" as="geometry" />
        </mxCell>
        <mxCell id="JuDqGbbSawKdHC7prrvu-66" value="&lt;font style=&quot;font-size: 20px;&quot;&gt;V&lt;/font&gt;" style="rounded=0;whiteSpace=wrap;html=1;" vertex="1" parent="1">
          <mxGeometry x="610" y="520" width="40" height="40" as="geometry" />
        </mxCell>
        <mxCell id="JuDqGbbSawKdHC7prrvu-67" value="&lt;font style=&quot;font-size: 20px;&quot;&gt;O&lt;/font&gt;" style="rounded=0;whiteSpace=wrap;html=1;" vertex="1" parent="1">
          <mxGeometry x="650" y="520" width="40" height="40" as="geometry" />
        </mxCell>
        <mxCell id="JuDqGbbSawKdHC7prrvu-68" value="&lt;font style=&quot;font-size: 20px;&quot;&gt;A&lt;/font&gt;" style="rounded=0;whiteSpace=wrap;html=1;" vertex="1" parent="1">
          <mxGeometry x="690" y="520" width="40" height="40" as="geometry" />
        </mxCell>
        <mxCell id="JuDqGbbSawKdHC7prrvu-69" value="" style="rounded=0;whiteSpace=wrap;html=1;fillColor=none;strokeWidth=3;" vertex="1" parent="1">
          <mxGeometry x="90" y="510" width="240" height="60" as="geometry" />
        </mxCell>
        <mxCell id="JuDqGbbSawKdHC7prrvu-71" value="&lt;font style=&quot;font-size: 20px;&quot;&gt;A&lt;/font&gt;" style="rounded=0;whiteSpace=wrap;html=1;" vertex="1" parent="1">
          <mxGeometry x="90" y="600" width="40" height="40" as="geometry" />
        </mxCell>
        <mxCell id="JuDqGbbSawKdHC7prrvu-72" value="&lt;font style=&quot;font-size: 20px;&quot;&gt;B&lt;/font&gt;" style="rounded=0;whiteSpace=wrap;html=1;" vertex="1" parent="1">
          <mxGeometry x="130" y="600" width="40" height="40" as="geometry" />
        </mxCell>
        <mxCell id="JuDqGbbSawKdHC7prrvu-73" value="&lt;font style=&quot;font-size: 20px;&quot;&gt;C&lt;/font&gt;" style="rounded=0;whiteSpace=wrap;html=1;" vertex="1" parent="1">
          <mxGeometry x="170" y="600" width="40" height="40" as="geometry" />
        </mxCell>
        <mxCell id="JuDqGbbSawKdHC7prrvu-74" value="&lt;font style=&quot;font-size: 20px;&quot;&gt;D&lt;/font&gt;" style="rounded=0;whiteSpace=wrap;html=1;" vertex="1" parent="1">
          <mxGeometry x="210" y="600" width="40" height="40" as="geometry" />
        </mxCell>
        <mxCell id="JuDqGbbSawKdHC7prrvu-75" value="&lt;font style=&quot;font-size: 20px;&quot;&gt;E&lt;/font&gt;" style="rounded=0;whiteSpace=wrap;html=1;" vertex="1" parent="1">
          <mxGeometry x="250" y="600" width="40" height="40" as="geometry" />
        </mxCell>
        <mxCell id="JuDqGbbSawKdHC7prrvu-76" value="&lt;font style=&quot;font-size: 20px;&quot;&gt;F&lt;/font&gt;" style="rounded=0;whiteSpace=wrap;html=1;" vertex="1" parent="1">
          <mxGeometry x="290" y="600" width="40" height="40" as="geometry" />
        </mxCell>
        <mxCell id="JuDqGbbSawKdHC7prrvu-77" value="&lt;font style=&quot;font-size: 20px;&quot;&gt;D&lt;/font&gt;" style="rounded=0;whiteSpace=wrap;html=1;" vertex="1" parent="1">
          <mxGeometry x="330" y="600" width="40" height="40" as="geometry" />
        </mxCell>
        <mxCell id="JuDqGbbSawKdHC7prrvu-78" value="&lt;font style=&quot;font-size: 20px;&quot;&gt;A&lt;/font&gt;" style="rounded=0;whiteSpace=wrap;html=1;" vertex="1" parent="1">
          <mxGeometry x="370" y="600" width="40" height="40" as="geometry" />
        </mxCell>
        <mxCell id="JuDqGbbSawKdHC7prrvu-79" value="&lt;font style=&quot;font-size: 20px;&quot;&gt;G&lt;/font&gt;" style="rounded=0;whiteSpace=wrap;html=1;" vertex="1" parent="1">
          <mxGeometry x="410" y="600" width="40" height="40" as="geometry" />
        </mxCell>
        <mxCell id="JuDqGbbSawKdHC7prrvu-80" value="&lt;font style=&quot;font-size: 20px;&quot;&gt;E&lt;/font&gt;" style="rounded=0;whiteSpace=wrap;html=1;" vertex="1" parent="1">
          <mxGeometry x="450" y="600" width="40" height="40" as="geometry" />
        </mxCell>
        <mxCell id="JuDqGbbSawKdHC7prrvu-81" value="&lt;font style=&quot;font-size: 20px;&quot;&gt;A&lt;/font&gt;" style="rounded=0;whiteSpace=wrap;html=1;" vertex="1" parent="1">
          <mxGeometry x="490" y="600" width="40" height="40" as="geometry" />
        </mxCell>
        <mxCell id="JuDqGbbSawKdHC7prrvu-82" value="&lt;font style=&quot;font-size: 20px;&quot;&gt;A&lt;/font&gt;" style="rounded=0;whiteSpace=wrap;html=1;" vertex="1" parent="1">
          <mxGeometry x="530" y="600" width="40" height="40" as="geometry" />
        </mxCell>
        <mxCell id="JuDqGbbSawKdHC7prrvu-83" value="&lt;font style=&quot;font-size: 20px;&quot;&gt;R&lt;/font&gt;" style="rounded=0;whiteSpace=wrap;html=1;" vertex="1" parent="1">
          <mxGeometry x="570" y="600" width="40" height="40" as="geometry" />
        </mxCell>
        <mxCell id="JuDqGbbSawKdHC7prrvu-84" value="&lt;font style=&quot;font-size: 20px;&quot;&gt;V&lt;/font&gt;" style="rounded=0;whiteSpace=wrap;html=1;" vertex="1" parent="1">
          <mxGeometry x="610" y="600" width="40" height="40" as="geometry" />
        </mxCell>
        <mxCell id="JuDqGbbSawKdHC7prrvu-85" value="&lt;font style=&quot;font-size: 20px;&quot;&gt;O&lt;/font&gt;" style="rounded=0;whiteSpace=wrap;html=1;" vertex="1" parent="1">
          <mxGeometry x="650" y="600" width="40" height="40" as="geometry" />
        </mxCell>
        <mxCell id="JuDqGbbSawKdHC7prrvu-86" value="&lt;font style=&quot;font-size: 20px;&quot;&gt;A&lt;/font&gt;" style="rounded=0;whiteSpace=wrap;html=1;" vertex="1" parent="1">
          <mxGeometry x="690" y="600" width="40" height="40" as="geometry" />
        </mxCell>
        <mxCell id="JuDqGbbSawKdHC7prrvu-87" value="" style="rounded=0;whiteSpace=wrap;html=1;fillColor=none;strokeWidth=3;" vertex="1" parent="1">
          <mxGeometry x="250" y="590" width="80" height="60" as="geometry" />
        </mxCell>
        <mxCell id="JuDqGbbSawKdHC7prrvu-88" value="&lt;font style=&quot;font-size: 20px;&quot;&gt;A&lt;/font&gt;" style="rounded=0;whiteSpace=wrap;html=1;" vertex="1" parent="1">
          <mxGeometry x="90" y="680" width="40" height="40" as="geometry" />
        </mxCell>
        <mxCell id="JuDqGbbSawKdHC7prrvu-89" value="&lt;font style=&quot;font-size: 20px;&quot;&gt;B&lt;/font&gt;" style="rounded=0;whiteSpace=wrap;html=1;" vertex="1" parent="1">
          <mxGeometry x="130" y="680" width="40" height="40" as="geometry" />
        </mxCell>
        <mxCell id="JuDqGbbSawKdHC7prrvu-90" value="&lt;font style=&quot;font-size: 20px;&quot;&gt;C&lt;/font&gt;" style="rounded=0;whiteSpace=wrap;html=1;" vertex="1" parent="1">
          <mxGeometry x="170" y="680" width="40" height="40" as="geometry" />
        </mxCell>
        <mxCell id="JuDqGbbSawKdHC7prrvu-91" value="&lt;font style=&quot;font-size: 20px;&quot;&gt;D&lt;/font&gt;" style="rounded=0;whiteSpace=wrap;html=1;" vertex="1" parent="1">
          <mxGeometry x="210" y="680" width="40" height="40" as="geometry" />
        </mxCell>
        <mxCell id="JuDqGbbSawKdHC7prrvu-92" value="&lt;font style=&quot;font-size: 20px;&quot;&gt;E&lt;/font&gt;" style="rounded=0;whiteSpace=wrap;html=1;" vertex="1" parent="1">
          <mxGeometry x="250" y="680" width="40" height="40" as="geometry" />
        </mxCell>
        <mxCell id="JuDqGbbSawKdHC7prrvu-93" value="&lt;font style=&quot;font-size: 20px;&quot;&gt;F&lt;/font&gt;" style="rounded=0;whiteSpace=wrap;html=1;" vertex="1" parent="1">
          <mxGeometry x="290" y="680" width="40" height="40" as="geometry" />
        </mxCell>
        <mxCell id="JuDqGbbSawKdHC7prrvu-94" value="&lt;font style=&quot;font-size: 20px;&quot;&gt;D&lt;/font&gt;" style="rounded=0;whiteSpace=wrap;html=1;" vertex="1" parent="1">
          <mxGeometry x="330" y="680" width="40" height="40" as="geometry" />
        </mxCell>
        <mxCell id="JuDqGbbSawKdHC7prrvu-95" value="&lt;font style=&quot;font-size: 20px;&quot;&gt;A&lt;/font&gt;" style="rounded=0;whiteSpace=wrap;html=1;" vertex="1" parent="1">
          <mxGeometry x="370" y="680" width="40" height="40" as="geometry" />
        </mxCell>
        <mxCell id="JuDqGbbSawKdHC7prrvu-96" value="&lt;font style=&quot;font-size: 20px;&quot;&gt;G&lt;/font&gt;" style="rounded=0;whiteSpace=wrap;html=1;" vertex="1" parent="1">
          <mxGeometry x="410" y="680" width="40" height="40" as="geometry" />
        </mxCell>
        <mxCell id="JuDqGbbSawKdHC7prrvu-97" value="&lt;font style=&quot;font-size: 20px;&quot;&gt;E&lt;/font&gt;" style="rounded=0;whiteSpace=wrap;html=1;" vertex="1" parent="1">
          <mxGeometry x="450" y="680" width="40" height="40" as="geometry" />
        </mxCell>
        <mxCell id="JuDqGbbSawKdHC7prrvu-98" value="&lt;font style=&quot;font-size: 20px;&quot;&gt;A&lt;/font&gt;" style="rounded=0;whiteSpace=wrap;html=1;" vertex="1" parent="1">
          <mxGeometry x="490" y="680" width="40" height="40" as="geometry" />
        </mxCell>
        <mxCell id="JuDqGbbSawKdHC7prrvu-99" value="&lt;font style=&quot;font-size: 20px;&quot;&gt;A&lt;/font&gt;" style="rounded=0;whiteSpace=wrap;html=1;" vertex="1" parent="1">
          <mxGeometry x="530" y="680" width="40" height="40" as="geometry" />
        </mxCell>
        <mxCell id="JuDqGbbSawKdHC7prrvu-100" value="&lt;font style=&quot;font-size: 20px;&quot;&gt;R&lt;/font&gt;" style="rounded=0;whiteSpace=wrap;html=1;" vertex="1" parent="1">
          <mxGeometry x="570" y="680" width="40" height="40" as="geometry" />
        </mxCell>
        <mxCell id="JuDqGbbSawKdHC7prrvu-101" value="&lt;font style=&quot;font-size: 20px;&quot;&gt;V&lt;/font&gt;" style="rounded=0;whiteSpace=wrap;html=1;" vertex="1" parent="1">
          <mxGeometry x="610" y="680" width="40" height="40" as="geometry" />
        </mxCell>
        <mxCell id="JuDqGbbSawKdHC7prrvu-102" value="&lt;font style=&quot;font-size: 20px;&quot;&gt;O&lt;/font&gt;" style="rounded=0;whiteSpace=wrap;html=1;" vertex="1" parent="1">
          <mxGeometry x="650" y="680" width="40" height="40" as="geometry" />
        </mxCell>
        <mxCell id="JuDqGbbSawKdHC7prrvu-103" value="&lt;font style=&quot;font-size: 20px;&quot;&gt;A&lt;/font&gt;" style="rounded=0;whiteSpace=wrap;html=1;" vertex="1" parent="1">
          <mxGeometry x="690" y="680" width="40" height="40" as="geometry" />
        </mxCell>
        <mxCell id="JuDqGbbSawKdHC7prrvu-104" value="" style="rounded=0;whiteSpace=wrap;html=1;fillColor=none;strokeWidth=3;" vertex="1" parent="1">
          <mxGeometry x="250" y="670" width="200" height="60" as="geometry" />
        </mxCell>
      </root>
    </mxGraphModel>
  </diagram>
</mxfile>
